<?xml version="1.0" standalone="no"?>
<!DOCTYPE svg PUBLIC "-//W3C//DTD SVG 20010904//EN"
 "http://www.w3.org/TR/2001/REC-SVG-20010904/DTD/svg10.dtd">
<svg version="1.0" xmlns="http://www.w3.org/2000/svg"
 width="500.000000pt" height="500.000000pt" viewBox="0 0 500.000000 500.000000"
 preserveAspectRatio="xMidYMid meet">
<metadata>
Created by potrace 1.14, written by Peter Selinger 2001-2017
</metadata>
<g transform="translate(0.000000,500.000000) scale(0.100000,-0.100000)"
fill="#000000" stroke="none">
<path d="M0 2500 l0 -2500 2500 0 2500 0 0 2500 0 2500 -2500 0 -2500 0 0
-2500z m2635 2343 c70 -22 129 -53 297 -154 217 -131 271 -148 528 -169 184
-14 257 -26 323 -50 155 -58 230 -152 338 -422 94 -238 141 -301 372 -500 291
-253 322 -353 228 -745 -66 -274 -65 -335 6 -628 32 -128 37 -167 37 -265 1
-96 -3 -124 -22 -170 -32 -80 -101 -160 -237 -277 -235 -201 -277 -256 -383
-508 -32 -77 -68 -158 -79 -180 -38 -74 -113 -166 -160 -195 -99 -63 -176 -81
-423 -100 -256 -20 -311 -38 -531 -171 -259 -157 -358 -191 -496 -169 -85 14
-172 55 -353 165 -225 137 -276 153 -575 180 -270 24 -352 52 -451 151 -57 58
-106 148 -184 339 -95 229 -133 280 -367 481 -142 123 -196 185 -240 279 -26
55 -28 70 -27 170 0 91 7 136 37 260 72 298 73 356 7 638 -50 218 -59 317 -36
406 30 117 81 182 276 348 80 69 167 150 193 181 51 61 117 187 193 371 121
292 228 373 528 401 389 36 403 40 636 180 91 54 191 111 222 125 119 54 231
64 343 28z"/>
<path d="M2360 4617 c-78 -28 -78 -28 -253 -133 -202 -121 -237 -132 -487
-154 -251 -22 -321 -44 -415 -131 -69 -65 -118 -153 -210 -374 -55 -133 -110
-209 -225 -307 -223 -190 -297 -285 -321 -412 -14 -77 -6 -148 39 -331 32
-131 36 -166 36 -275 1 -108 -4 -143 -32 -257 -46 -189 -58 -279 -44 -349 26
-127 83 -205 267 -363 190 -164 215 -198 306 -414 106 -252 163 -330 280 -384
79 -37 140 -49 340 -68 241 -22 282 -36 507 -173 292 -178 404 -180 688 -11
155 93 258 144 315 158 25 6 119 17 210 26 204 20 258 30 336 65 108 49 179
139 257 325 102 245 152 322 283 433 194 165 241 216 285 309 52 110 48 214
-19 478 -36 145 -40 256 -13 380 70 326 72 339 67 414 -5 58 -14 90 -41 145
-36 74 -67 106 -312 332 -113 104 -143 150 -221 332 -159 370 -227 422 -598
452 -249 20 -300 37 -534 179 -174 105 -222 123 -336 128 -76 3 -100 0 -155
-20z m313 -55 c37 -17 115 -60 175 -95 227 -137 267 -150 516 -172 266 -24
337 -46 424 -137 49 -50 92 -129 157 -288 84 -207 131 -271 301 -416 148 -126
204 -187 241 -262 25 -51 28 -67 28 -157 -1 -81 -8 -131 -40 -265 -54 -227
-54 -322 -1 -540 87 -354 62 -431 -213 -670 -199 -172 -226 -211 -341 -488
-52 -126 -102 -204 -163 -258 -75 -66 -163 -88 -465 -114 -176 -16 -256 -44
-412 -144 -303 -195 -423 -203 -686 -44 -264 159 -300 173 -493 189 -286 23
-388 50 -469 123 -59 53 -96 117 -163 278 -103 247 -133 289 -329 458 -71 62
-145 132 -165 156 -104 126 -115 242 -50 504 34 138 39 169 39 280 0 112 -4
141 -39 280 -32 127 -39 173 -39 255 -1 91 2 105 27 155 42 82 86 130 227 251
194 165 226 209 329 457 68 163 104 223 167 282 79 73 145 92 401 115 254 23
285 33 486 154 224 135 268 152 392 148 76 -3 101 -9 158 -35z"/>
<path d="M2140 3925 c-36 -8 -100 -26 -143 -40 -53 -17 -101 -25 -147 -25 -58
0 -73 -4 -97 -24 l-28 -24 -3 -451 c-3 -494 -3 -497 55 -519 33 -13 470 -32
723 -32 251 0 690 19 723 32 56 22 57 27 57 505 0 541 10 507 -155 516 -39 3
-117 19 -175 36 -179 54 -326 51 -411 -10 -15 -10 -30 -19 -34 -19 -4 0 -36
14 -71 31 -77 38 -191 47 -294 24z m276 -76 l49 -25 3 -403 2 -403 -25 21
c-90 70 -249 66 -523 -15 l-22 -6 2 387 3 388 55 19 c212 74 360 86 456 37z
m475 7 c52 -13 120 -34 152 -46 l57 -21 0 -386 0 -385 -22 6 c-195 58 -355 79
-434 57 -23 -6 -58 -22 -78 -36 l-36 -24 0 398 0 399 35 21 c81 48 185 53 326
17z m-1049 -488 l3 -433 280 0 c191 0 295 -4 328 -13 37 -10 57 -10 95 0 32 9
136 13 327 13 l280 0 3 433 2 433 28 -3 27 -3 3 -441 c2 -357 0 -443 -11 -452
-8 -7 -144 -17 -360 -27 -311 -13 -383 -13 -694 0 -214 10 -352 20 -360 27
-10 8 -13 98 -13 448 0 240 3 440 7 443 3 4 17 7 30 7 l23 0 2 -432z m531
-356 c38 -17 37 -17 -155 -18 -106 -1 -188 0 -182 3 90 33 278 42 337 15z
m552 -5 c47 -14 39 -14 -143 -13 l-194 1 39 18 c32 15 56 17 143 13 58 -3 128
-11 155 -19z"/>
<path d="M3536 2498 c-14 -20 -14 -24 0 -46 8 -13 13 -29 11 -35 -2 -7 -11 2
-19 18 -9 17 -28 41 -42 54 -22 21 -31 23 -54 15 -29 -10 -42 -48 -23 -67 17
-17 13 -27 -9 -27 -15 0 -20 7 -20 29 0 49 -49 70 -119 51 -36 -9 -41 -14 -41
-40 0 -16 -6 -32 -12 -37 -7 -4 -71 -12 -142 -19 -140 -12 -156 -19 -156 -74
0 -52 23 -60 176 -60 76 0 145 -4 152 -9 8 -5 12 -17 10 -27 -3 -17 -13 -19
-98 -19 -77 0 -101 -4 -129 -20 -59 -35 -76 -68 -76 -143 1 -154 76 -208 319
-232 114 -11 183 -6 213 15 27 20 23 113 -6 136 -19 15 -27 15 -93 3 -97 -18
-191 -18 -228 1 -23 12 -30 22 -30 45 0 47 31 56 141 41 128 -18 180 -6 208
47 11 20 9 30 -14 74 -14 27 -25 60 -23 71 3 20 11 23 73 27 39 3 76 9 83 13
6 5 12 23 12 42 0 26 7 38 30 55 17 12 30 27 30 33 0 7 -16 33 -35 60 -39 52
-65 60 -89 25z"/>
<path d="M965 2501 c-23 -5 -31 -12 -33 -33 -4 -31 -22 -38 -107 -38 -73 -1
-135 -14 -146 -32 -5 -7 -9 -27 -9 -45 0 -49 24 -57 156 -51 62 3 117 2 124
-2 22 -14 -20 -20 -136 -20 -126 0 -177 -14 -189 -50 -4 -13 0 -30 9 -45 16
-24 18 -25 198 -27 122 -2 183 -7 185 -14 3 -8 -35 -13 -119 -16 -175 -7 -228
-35 -228 -124 0 -57 33 -102 100 -136 73 -37 154 -51 270 -46 122 5 154 19
158 72 2 21 -2 44 -8 50 -7 7 -66 11 -169 11 -120 0 -162 3 -175 14 -44 36 47
53 165 31 64 -12 142 7 186 45 l28 24 -23 42 c-25 48 -19 59 36 59 51 0 72 16
72 53 0 54 -11 62 -101 67 -59 4 -84 9 -87 19 -4 12 8 13 66 8 80 -8 102 3
102 52 0 46 -32 65 -118 71 -68 4 -78 8 -88 29 -21 41 -46 48 -119 32z"/>
<path d="M3752 2410 c-43 -18 -64 -89 -65 -214 0 -178 35 -279 119 -343 34
-25 45 -28 115 -28 71 0 80 2 116 31 39 32 113 159 113 194 0 35 -102 74 -137
52 -6 -4 -24 -32 -40 -62 -36 -71 -66 -79 -90 -23 -13 30 -17 73 -18 207 -1
152 -3 170 -20 182 -21 16 -59 17 -93 4z"/>
<path d="M4180 2407 c-34 -17 -37 -61 -11 -145 11 -37 30 -120 41 -186 30
-168 29 -166 90 -166 56 0 85 20 96 67 11 41 -12 199 -41 292 -41 129 -100
176 -175 138z"/>
<path d="M1710 2363 c-32 -11 -40 -37 -40 -129 0 -119 -2 -124 -54 -124 -52 0
-120 -31 -141 -64 -23 -35 -21 -109 4 -150 40 -65 163 -103 244 -77 20 7 52
31 71 53 l35 40 35 -22 c48 -29 75 -23 109 26 41 59 32 78 -58 119 -78 35 -95
53 -87 91 5 27 7 27 77 24 68 -2 101 22 91 67 -10 45 -28 56 -104 62 -66 6
-66 6 -73 40 -4 18 -13 37 -21 42 -14 9 -64 11 -88 2z m-42 -400 c-4 -33 -37
-43 -57 -19 -20 24 -6 46 29 46 28 0 31 -3 28 -27z"/>
<path d="M2216 2217 c-51 -16 -82 -56 -67 -86 28 -52 47 -56 315 -59 292 -4
326 -1 368 37 30 26 31 30 19 58 -22 54 -41 57 -331 60 -185 2 -277 -1 -304
-10z"/>
</g>
</svg>
